<svg xmlns="http://www.w3.org/2000/svg" width="48.148" height="50" viewBox="0 0 48.148 50">
  <g id="asset_39" data-name="asset 39" transform="translate(-3)">
    <path id="Tracciato_1" data-name="Tracciato 1" d="M27.056,50c-7.424-.006-13.4-1.769-17.583-4.937A15.8,15.8,0,0,1,3,32.161,14.794,14.794,0,0,1,7.771,21.207a21.034,21.034,0,0,1,5.7-3.806c-.345-1.048-.775-2.419-1.16-3.836a24.711,24.711,0,0,1-1.02-5.75,8.8,8.8,0,0,1,1.57-5.372A6.317,6.317,0,0,1,18.087,0a6.094,6.094,0,0,1,4.307,1.714,9.611,9.611,0,0,1,2.313,3.851,30.892,30.892,0,0,1,1.317,8.858h2.1a30.883,30.883,0,0,1,1.317-8.858,9.613,9.613,0,0,1,2.313-3.851A6.094,6.094,0,0,1,36.062,0a6.317,6.317,0,0,1,5.225,2.443,8.8,8.8,0,0,1,1.571,5.372,24.7,24.7,0,0,1-1.021,5.75c-.385,1.417-.815,2.788-1.16,3.836a21.03,21.03,0,0,1,5.7,3.806,14.794,14.794,0,0,1,4.771,10.954,15.805,15.805,0,0,1-6.472,12.9C40.5,48.231,34.517,49.994,27.093,50Z" transform="translate(0 0)" fill="#633001" fill-rule="evenodd"/>
    <path id="Tracciato_2" data-name="Tracciato 2" d="M24.347,7.288c-3.211,0-4.689,2.4-4.689,5.709,0,2.633,1.717,7.907,2.422,9.96a.923.923,0,0,1-.545,1.147c-2.573,1.015-10.168,4.73-10.168,13.239,0,8.963,7.718,15.722,21.951,15.732h.034c14.233-.011,21.95-6.769,21.95-15.732,0-8.509-7.595-12.224-10.168-13.239a.922.922,0,0,1-.545-1.147c.7-2.053,2.422-7.327,2.422-9.96,0-3.313-1.478-5.709-4.689-5.709-4.622,0-5.774,6.547-5.857,13.575a.857.857,0,0,1-.854.85H31.057a.857.857,0,0,1-.854-.85c-.082-7.027-1.234-13.575-5.857-13.575Z" transform="translate(-6.261 -5.453)" fill="#d1884f"/>
    <path id="Tracciato_3" data-name="Tracciato 3" d="M33.352,139.581c-10.457,0-21.966-5.6-21.984-12.844v.034c0,8.97,7.73,15.732,21.984,15.732s21.984-6.762,21.984-15.732v-.034C55.319,133.983,43.81,139.581,33.352,139.581Z" transform="translate(-6.261 -94.831)" fill="#fedc90"/>
    <path id="Tracciato_4" data-name="Tracciato 4" d="M60.263,106.838c0,2.447-1.156,3.721-2.582,3.721s-2.582-1.274-2.582-3.721,1.156-3.721,2.582-3.721S60.263,104.391,60.263,106.838Zm16.785,0c0,2.447-1.156,3.721-2.582,3.721s-2.582-1.274-2.582-3.721,1.156-3.721,2.582-3.721S77.048,104.391,77.048,106.838Z" transform="translate(-38.982 -77.157)" fill="#633001"/>
  </g>
</svg>
