<svg id="asset_40" data-name="asset 40" xmlns="http://www.w3.org/2000/svg" width="280" height="43.512" viewBox="0 0 280 43.512">
  <g id="Componente_65_1" data-name="Componente 65 – 1" transform="translate(51.711 10.078)">
    <path id="Tracciato_9" data-name="Tracciato 9" d="M240.756,69.463a1.92,1.92,0,0,1-1.384-.405A1.859,1.859,0,0,1,239,67.775V48.228a1.511,1.511,0,0,1,1.756-1.722h8.271q4.726,0,6.955,1.992t2.228,5.942a7.516,7.516,0,0,1-2.228,5.908q-2.195,1.958-6.955,1.958H245.82v5.469a1.754,1.754,0,0,1-.405,1.283,1.92,1.92,0,0,1-1.384.405Zm7.731-12.052a2.878,2.878,0,0,0,2.127-.743,2.947,2.947,0,0,0,.776-2.228,3,3,0,0,0-.776-2.262,2.878,2.878,0,0,0-2.127-.743H245.82v5.976Zm17.7,12.559a6.7,6.7,0,0,1-5.1-2.025,8.223,8.223,0,0,1-1.891-5.773,9.423,9.423,0,0,1,1.283-4.963,8.68,8.68,0,0,1,3.68-3.275,12.291,12.291,0,0,1,5.5-1.182,16.12,16.12,0,0,1,4.524.574,13.263,13.263,0,0,1,3.646,1.587v13.5a1.11,1.11,0,0,1-.236.844,1.538,1.538,0,0,1-.945.2H273.2a1.307,1.307,0,0,1-.574-.1,1.017,1.017,0,0,1-.338-.405l-.439-1.013a5.711,5.711,0,0,1-2.363,1.519,9.47,9.47,0,0,1-3.309.506Zm2.532-4.591a3.05,3.05,0,0,0,2.059-.641,2.279,2.279,0,0,0,.743-1.823V57.647a3.783,3.783,0,0,0-1.62-.3,3.605,3.605,0,0,0-2.87,1.249A5.314,5.314,0,0,0,265.98,62.1Q265.98,65.378,268.715,65.378Zm13.813,4.085a1.92,1.92,0,0,1-1.384-.405,1.754,1.754,0,0,1-.405-1.283V54.3a1.174,1.174,0,0,1,.2-.81,1.368,1.368,0,0,1,.945-.236h3.477a1.1,1.1,0,0,1,.607.135.456.456,0,0,1,.27.405l.169,1.013a6.5,6.5,0,0,1,2.465-1.485,9.867,9.867,0,0,1,3.444-.574,6.275,6.275,0,0,1,4.423,1.553,5.777,5.777,0,0,1,1.688,4.524v8.946a1.754,1.754,0,0,1-.405,1.283,1.793,1.793,0,0,1-1.35.405H293.4a2.054,2.054,0,0,1-1.418-.405,1.755,1.755,0,0,1-.405-1.283V59.268a2,2,0,0,0-.439-1.452,1.893,1.893,0,0,0-1.384-.439,2.35,2.35,0,0,0-1.621.54,1.942,1.942,0,0,0-.574,1.486v8.372a1.756,1.756,0,0,1-.405,1.283,1.793,1.793,0,0,1-1.35.405h-3.275Zm27.834.506q-4.726,0-7.292-2.194a7.933,7.933,0,0,1-2.566-6.381,8.583,8.583,0,0,1,1.182-4.524,7.881,7.881,0,0,1,3.41-3.039,12.263,12.263,0,0,1,5.334-1.08,14.92,14.92,0,0,1,3.916.439,8.654,8.654,0,0,1,2.87,1.35.7.7,0,0,1,.371.608,1.48,1.48,0,0,1-.27.709l-1.384,2.4q-.236.473-.574.473a1.478,1.478,0,0,1-.641-.27A8.062,8.062,0,0,0,313,57.614a6.039,6.039,0,0,0-1.958-.27,3.636,3.636,0,0,0-2.735,1.08,4.171,4.171,0,0,0-1.013,2.971,4.018,4.018,0,0,0,1.047,2.971,3.953,3.953,0,0,0,2.87,1.013,5.957,5.957,0,0,0,1.958-.3,9.819,9.819,0,0,0,1.789-.844,1.675,1.675,0,0,1,.675-.27q.3,0,.54.473l1.519,2.6a1.307,1.307,0,0,1,.169.54.735.735,0,0,1-.405.574,10.668,10.668,0,0,1-3.106,1.35A14.645,14.645,0,0,1,310.362,69.97Zm16.054,0a6.7,6.7,0,0,1-5.1-2.025,8.223,8.223,0,0,1-1.891-5.773,9.421,9.421,0,0,1,1.283-4.963,8.678,8.678,0,0,1,3.68-3.275,12.293,12.293,0,0,1,5.5-1.182,16.12,16.12,0,0,1,4.524.574,13.264,13.264,0,0,1,3.646,1.587v13.5a1.11,1.11,0,0,1-.236.844,1.538,1.538,0,0,1-.945.2h-3.443a1.308,1.308,0,0,1-.574-.1,1.018,1.018,0,0,1-.338-.405l-.439-1.013a5.711,5.711,0,0,1-2.363,1.519,9.47,9.47,0,0,1-3.308.506Zm2.532-4.591a3.05,3.05,0,0,0,2.059-.641,2.279,2.279,0,0,0,.743-1.823V57.647a3.785,3.785,0,0,0-1.621-.3,3.606,3.606,0,0,0-2.87,1.249,5.315,5.315,0,0,0-1.047,3.511Q326.214,65.378,328.949,65.378Zm30.322,2.8a.9.9,0,0,1,.236.608.686.686,0,0,1-.2.506.816.816,0,0,1-.54.169h-5.233a2.773,2.773,0,0,1-.709-.067,1.543,1.543,0,0,1-.439-.371l-4.591-6.246v5a1.754,1.754,0,0,1-.405,1.283,1.92,1.92,0,0,1-1.384.405h-3.275a1.92,1.92,0,0,1-1.384-.405,1.859,1.859,0,0,1-.371-1.283V48.228a1.511,1.511,0,0,1,1.756-1.722H346a1.822,1.822,0,0,1,1.384.439,1.754,1.754,0,0,1,.405,1.283v11.31l4.456-5.807a1.109,1.109,0,0,1,.439-.371,1.887,1.887,0,0,1,.709-.1h5.233a.622.622,0,0,1,.506.2.582.582,0,0,1,.2.473.9.9,0,0,1-.236.608l-5.773,6.617Zm10.962,1.789a12.86,12.86,0,0,1-5.064-.945,7.858,7.858,0,0,1-3.477-2.836,8.046,8.046,0,0,1-1.283-4.625q0-4.288,2.431-6.55t6.988-2.262q4.457,0,6.752,2.228a7.988,7.988,0,0,1,2.329,6.111q0,1.688-1.485,1.688h-10.6a2.577,2.577,0,0,0,1.08,2.228,5.865,5.865,0,0,0,3.342.776,9.346,9.346,0,0,0,2.3-.236,9.577,9.577,0,0,0,1.89-.776,1.853,1.853,0,0,1,.54-.169q.3,0,.507.405l1.148,2.161a1.3,1.3,0,0,1,.169.507.735.735,0,0,1-.405.574,9.561,9.561,0,0,1-3.139,1.317A17.957,17.957,0,0,1,370.233,69.97Zm2.6-10.533a2.623,2.623,0,0,0-.743-1.992,3.117,3.117,0,0,0-2.228-.709,3.149,3.149,0,0,0-2.262.743,2.519,2.519,0,0,0-.776,1.958ZM390.481,69.97a24.234,24.234,0,0,1-5.368-.574,12.077,12.077,0,0,1-4.085-1.688q-.574-.371-.574-.776a1.047,1.047,0,0,1,.2-.574l1.654-2.633q.27-.405.54-.405a1.424,1.424,0,0,1,.574.236,12.429,12.429,0,0,0,2.836,1.148,11.733,11.733,0,0,0,3.14.439,4.451,4.451,0,0,0,2.329-.473,1.644,1.644,0,0,0,.776-1.519,1.816,1.816,0,0,0-.844-1.587,16,16,0,0,0-3.072-1.452,18.834,18.834,0,0,1-5.334-2.87,5.481,5.481,0,0,1-1.891-4.389,5.927,5.927,0,0,1,2.4-5.1A10.559,10.559,0,0,1,390.143,46a19.109,19.109,0,0,1,4.726.506,9.281,9.281,0,0,1,3.376,1.485q.574.439.574.81a1.009,1.009,0,0,1-.2.54l-1.654,2.633q-.3.4-.54.405a1.426,1.426,0,0,1-.574-.236,8.309,8.309,0,0,0-4.659-1.283,4.318,4.318,0,0,0-2.228.473,1.677,1.677,0,0,0-.776,1.553,1.8,1.8,0,0,0,.405,1.215,3.842,3.842,0,0,0,1.08.844q.709.337,2.161.878l.641.236a22.871,22.871,0,0,1,3.916,1.891,6.025,6.025,0,0,1,2.194,2.194,6.394,6.394,0,0,1,.743,3.241,5.8,5.8,0,0,1-2.262,4.794Q394.836,69.97,390.481,69.97Zm16.018-.506a1.473,1.473,0,0,1-.776-.169,1.087,1.087,0,0,1-.405-.675l-4.355-14.584a1.07,1.07,0,0,1-.068-.3q0-.473.675-.473h4.456a1,1,0,0,1,.642.169.694.694,0,0,1,.269.473l1.823,7.664,2.3-6.178a1.418,1.418,0,0,1,.337-.54,1.066,1.066,0,0,1,.677-.169H414.2a.913.913,0,0,1,.642.169,1.187,1.187,0,0,1,.372.54l2.261,6.178,1.858-7.664a.914.914,0,0,1,.27-.473.851.851,0,0,1,.607-.169H424.7c.449,0,.675.158.675.473a1.042,1.042,0,0,1-.068.3l-4.388,14.584a1.088,1.088,0,0,1-.405.675,1.293,1.293,0,0,1-.743.169h-3.308a1.223,1.223,0,0,1-.71-.169,1.587,1.587,0,0,1-.405-.675l-2.228-6.111-2.228,6.111a1.237,1.237,0,0,1-.405.675,1.215,1.215,0,0,1-.708.169H406.5Zm27.43.506a6.706,6.706,0,0,1-5.1-2.025,8.226,8.226,0,0,1-1.891-5.773,9.409,9.409,0,0,1,1.284-4.963,8.668,8.668,0,0,1,3.678-3.275,12.3,12.3,0,0,1,5.5-1.182,16.122,16.122,0,0,1,4.524.574,13.252,13.252,0,0,1,3.646,1.587v13.5a1.11,1.11,0,0,1-.237.844,1.534,1.534,0,0,1-.944.2H440.95a1.312,1.312,0,0,1-.574-.1,1.009,1.009,0,0,1-.337-.405l-.438-1.013a5.718,5.718,0,0,1-2.364,1.519,9.468,9.468,0,0,1-3.308.506Zm2.533-4.591a3.053,3.053,0,0,0,2.059-.641,2.279,2.279,0,0,0,.743-1.823V57.647a3.794,3.794,0,0,0-1.621-.3,3.606,3.606,0,0,0-2.87,1.249,5.32,5.32,0,0,0-1.047,3.511Q433.725,65.378,436.461,65.378Zm13.778,10.9a1.923,1.923,0,0,1-1.385-.405,1.859,1.859,0,0,1-.37-1.283V55.25a13.364,13.364,0,0,1,3.814-1.789,16.16,16.16,0,0,1,4.794-.709q10.2,0,10.2,8.643a8.825,8.825,0,0,1-2.16,6.246,7.923,7.923,0,0,1-6.11,2.329,8.63,8.63,0,0,1-2.162-.27,5.292,5.292,0,0,1-1.687-.743v5.638a1.757,1.757,0,0,1-.405,1.283,1.919,1.919,0,0,1-1.385.405Zm7.326-10.871a2.4,2.4,0,0,0,2.16-1.08,5.279,5.279,0,0,0,.743-2.971,4.285,4.285,0,0,0-.876-3.072,3.432,3.432,0,0,0-2.633-.911,4.5,4.5,0,0,0-1.823.3v5.368a2.3,2.3,0,0,0,.64,1.756,2.5,2.5,0,0,0,1.79.608Z" transform="translate(-239 -46)"/>
  </g>
  <path id="Tracciato_10" data-name="Tracciato 10" d="M23.693,43.512c-6.4,0-11.548-1.54-15.147-4.3A13.8,13.8,0,0,1,2.97,27.988a12.933,12.933,0,0,1,4.11-9.532,18.107,18.107,0,0,1,4.911-3.312c-.3-.912-.668-2.105-1-3.338a21.707,21.707,0,0,1-.879-5,7.712,7.712,0,0,1,1.353-4.675A5.421,5.421,0,0,1,15.966,0a5.221,5.221,0,0,1,3.71,1.492A8.382,8.382,0,0,1,21.67,4.844,27.126,27.126,0,0,1,22.8,12.553h1.809a27.126,27.126,0,0,1,1.135-7.709,8.381,8.381,0,0,1,1.993-3.352A5.222,5.222,0,0,1,31.451,0a5.421,5.421,0,0,1,4.5,2.126A7.712,7.712,0,0,1,37.305,6.8a21.708,21.708,0,0,1-.879,5c-.332,1.233-.7,2.427-1,3.338a18.1,18.1,0,0,1,4.911,3.312,12.932,12.932,0,0,1,4.11,9.532,13.8,13.8,0,0,1-5.575,11.228c-3.6,2.757-8.752,4.291-15.147,4.3Z" transform="translate(-2.97)" fill="#633001" fill-rule="evenodd"/>
  <g id="Componente_64_1" data-name="Componente 64 – 1" transform="translate(1.815 1.597)">
    <path id="Tracciato_11" data-name="Tracciato 11" d="M22.435,7.288c-2.766,0-4.039,2.085-4.039,4.968,0,2.292,1.479,6.881,2.086,8.668a.805.805,0,0,1-.469,1c-2.217.883-8.759,4.116-8.759,11.521,0,7.8,6.649,13.682,18.909,13.691h.029C42.452,47.124,49.1,41.243,49.1,33.443c0-7.4-6.542-10.638-8.759-11.521a.805.805,0,0,1-.469-1c.607-1.786,2.087-6.376,2.087-8.668,0-2.883-1.273-4.968-4.04-4.968-3.982,0-4.974,5.7-5.045,11.813a.742.742,0,0,1-.735.739H28.215a.742.742,0,0,1-.736-.739c-.071-6.115-1.063-11.813-5.045-11.813Z" transform="translate(-11.253 -7.288)" fill="#d1884f"/>
  </g>
  <path id="Tracciato_12" data-name="Tracciato 12" d="M30.192,137.914c-9.008,0-18.923-4.871-18.939-11.177v.029c0,7.806,6.659,13.691,18.939,13.691s18.939-5.885,18.939-13.691v-.029c-.016,6.306-9.93,11.177-18.939,11.177Z" transform="translate(-9.438 -98.971)" fill="#fedc90"/>
  <path id="Tracciato_13" data-name="Tracciato 13" d="M58.991,106.355c0,2.129-1,3.238-2.225,3.238s-2.225-1.109-2.225-3.238,1-3.238,2.225-3.238S58.991,104.226,58.991,106.355Zm14.46,0c0,2.129-1,3.238-2.225,3.238S69,108.484,69,106.355s1-3.238,2.225-3.238S73.451,104.226,73.451,106.355Z" transform="translate(-43.243 -80.525)" fill="#633001"/>
</svg>
