<svg id="Componente_68_1" data-name="Componente 68 – 1" xmlns="http://www.w3.org/2000/svg" width="18.449" height="6.476" viewBox="0 0 18.449 6.476">
  <path id="Tracciato_13" data-name="Tracciato 13" d="M73.451,106.355a9.8,9.8,0,0,1-.412,2.026s-.981,1.211-1.812,1.211C70,109.593,69,108.484,69,106.355s1-3.238,2.225-3.238S73.451,104.226,73.451,106.355Z" transform="translate(-55.002 -103.117)" fill="#633001"/>
  <path id="Tracciato_58" data-name="Tracciato 58" d="M76.289,104.119c0,.213-.675.627-.675.627a15.507,15.507,0,0,1-2.968.375c-2.012,0-3.644-.343-3.644-1s1.631-1,3.644-1S76.289,103.46,76.289,104.119Z" transform="translate(-69.002 -100.881)" fill="#633001"/>
</svg>
