<svg id="Componente_67_1" data-name="Componente 67 – 1" xmlns="http://www.w3.org/2000/svg" width="41.477" height="43.512" viewBox="0 0 41.477 43.512">
  <path id="Tracciato_10" data-name="Tracciato 10" d="M23.693,43.512c-6.4,0-11.548-1.54-15.147-4.3A13.8,13.8,0,0,1,2.97,27.988a12.933,12.933,0,0,1,4.11-9.532,18.107,18.107,0,0,1,4.911-3.312c-.3-.912-.668-2.105-1-3.338a21.707,21.707,0,0,1-.879-5,7.712,7.712,0,0,1,1.353-4.675A5.421,5.421,0,0,1,15.966,0a5.221,5.221,0,0,1,3.71,1.492A8.382,8.382,0,0,1,21.67,4.844,27.126,27.126,0,0,1,22.8,12.553h1.809a27.126,27.126,0,0,1,1.135-7.709,8.381,8.381,0,0,1,1.993-3.352A5.222,5.222,0,0,1,31.451,0a5.421,5.421,0,0,1,4.5,2.126A7.712,7.712,0,0,1,37.305,6.8a21.708,21.708,0,0,1-.879,5c-.332,1.233-.7,2.427-1,3.338a18.1,18.1,0,0,1,4.911,3.312,12.932,12.932,0,0,1,4.11,9.532,13.8,13.8,0,0,1-5.575,11.228c-3.6,2.757-8.752,4.291-15.147,4.3Z" transform="translate(-2.97)" fill="#633001" fill-rule="evenodd"/>
</svg>
